<svg width="61.000000" height="93.000000" viewBox="0 0 61 93" fill="none" xmlns="http://www.w3.org/2000/svg" xmlns:xlink="http://www.w3.org/1999/xlink">
	<desc>
			Created with Pixso.
	</desc>
	<defs>
		<clipPath id="clip5_1505">
			<rect id="Frame" width="55.000000" height="48.000000" transform="translate(3.000000 45.000000)" fill="white" fill-opacity="0"/>
		</clipPath>
		<clipPath id="clip5_1599">
			<rect id="Frame" width="61.000000" height="46.000000" fill="white" fill-opacity="0"/>
		</clipPath>
	</defs>
	<rect id="Frame" width="55.000000" height="48.000000" transform="translate(3.000000 45.000000)" fill="#FFFFFF" fill-opacity="0"/>
	<g clip-path="url(#clip5_1505)">
		<path id="Vector" d="M12.12 46.35C24.7 48.02 37.39 48.28 50.02 47.13C50.87 47.06 50.88 45.7 50.02 45.78C37.39 46.92 24.7 46.66 12.12 45C11.27 44.89 11.28 46.24 12.12 46.35Z" fill="#727272" fill-opacity="1.000000" fill-rule="nonzero"/>
		<path id="Vector" d="M15.03 92.03C20.46 92.72 25.93 93.06 31.41 92.98C36.23 92.91 41.92 93.13 46.44 91.22C47.22 90.89 46.88 89.58 46.08 89.92C41.44 91.87 35.5 91.61 30.54 91.64C25.35 91.67 20.17 91.33 15.02 90.67C14.17 90.57 14.17 91.92 15.03 92.03Z" fill="#727272" fill-opacity="1.000000" fill-rule="nonzero"/>
		<path id="Vector" d="M11.6 45.31C5.33 51.16 2.4 59.89 3.09 68.39C3.45 72.79 4.69 77.06 6.55 81.05C8.24 84.68 10.74 89.89 14.49 91.78C15.26 92.17 15.94 91 15.16 90.61C11.68 88.85 9.3 83.79 7.71 80.37C5.85 76.38 4.64 72.04 4.39 67.64C3.94 59.7 6.71 51.72 12.55 46.27C13.19 45.68 12.24 44.72 11.6 45.31Z" fill="#727272" fill-opacity="1.000000" fill-rule="nonzero"/>
		<path id="Vector" d="M49.54 46.95C56.16 51.12 56.78 60.11 56.62 67.19C56.44 75.09 55.47 87.61 46.08 89.92C45.24 90.12 45.6 91.43 46.44 91.22C56.24 88.81 57.65 76.39 57.95 68.03C58.22 60.21 57.53 50.38 50.22 45.78C49.48 45.32 48.81 46.49 49.54 46.95Z" fill="#727272" fill-opacity="1.000000" fill-rule="nonzero"/>
		<path id="Vector" d="M16.57 46.36C11.64 51.7 9.46 60.63 10.29 67.78C10.77 71.94 12.08 76.07 13.06 80.13C14.03 84.2 15.04 88.24 17.26 91.84C17.72 92.58 18.88 91.89 18.42 91.16C16.34 87.78 15.37 84.01 14.45 80.2C13.56 76.52 12.53 72.83 11.84 69.11C10.54 62.03 12.58 52.67 17.52 47.32C18.11 46.68 17.16 45.72 16.57 46.36Z" fill="#727272" fill-opacity="1.000000" fill-rule="nonzero"/>
		<path id="Vector" d="M23.24 46.92C19.56 53.43 17.63 60.83 17.72 68.32C17.77 71.92 18.29 75.52 19.26 78.98C20.48 83.28 22.33 87.36 23.13 91.77C23.29 92.63 24.59 92.26 24.43 91.41C23.72 87.54 22.23 83.95 21.04 80.22C19.89 76.61 19.2 72.88 19.08 69.08C18.85 61.56 20.71 54.14 24.4 47.61C24.83 46.85 23.67 46.17 23.24 46.92Z" fill="#727272" fill-opacity="1.000000" fill-rule="nonzero"/>
		<path id="Vector" d="M27.2 48.22C28.48 55.73 26.93 63.25 27.06 70.8C27.11 74.24 27.88 77.45 28.33 80.84C28.8 84.36 28 87.98 27.56 91.47C27.45 92.33 28.8 92.32 28.91 91.47C29.35 87.95 30.14 84.3 29.67 80.75C29.2 77.11 28.4 73.67 28.39 69.97C28.38 62.57 29.75 55.23 28.5 47.86C28.35 47.01 27.05 47.37 27.2 48.22Z" fill="#727272" fill-opacity="1.000000" fill-rule="nonzero"/>
		<path id="Vector" d="M32.24 47.59C34.61 54.38 34.89 61.54 35.13 68.65C35.39 76.39 35.01 84 33.57 91.61C33.41 92.46 34.71 92.82 34.87 91.97C36.32 84.24 36.74 76.5 36.48 68.65C36.23 61.42 35.94 54.12 33.54 47.23C33.26 46.42 31.96 46.77 32.24 47.59Z" fill="#727272" fill-opacity="1.000000" fill-rule="nonzero"/>
		<path id="Vector" d="M37.9 47.62C38.4 49.15 39.48 50.17 40.3 51.51C41.24 53.05 41.76 54.78 42.04 56.55C42.64 60.41 42.36 64.45 42.35 68.34C42.34 72.57 42.66 77.05 41.57 81.18C40.61 84.81 38.41 87.94 37.67 91.65C37.5 92.5 38.8 92.86 38.97 92.01C39.76 88.04 42.2 84.68 43.06 80.73C43.94 76.69 43.68 72.45 43.69 68.34C43.7 64.54 43.93 60.66 43.43 56.89C43.21 55.22 42.83 53.57 42.12 52.05C41.32 50.35 39.78 49.05 39.2 47.27C38.93 46.44 37.63 46.79 37.9 47.62Z" fill="#727272" fill-opacity="1.000000" fill-rule="nonzero"/>
		<path id="Vector" d="M44.44 47.41C47.12 49.94 48.4 53.97 49.37 57.45C50.37 61.07 50.04 64.94 49.81 68.65C49.36 76.18 48.09 83.7 44.5 90.41C44.09 91.17 45.25 91.86 45.66 91.09C49.49 83.93 50.77 75.89 51.2 67.87C51.41 63.83 51.59 59.88 50.33 55.99C49.23 52.61 48.03 48.94 45.4 46.45C44.77 45.86 43.81 46.82 44.44 47.41Z" fill="#727272" fill-opacity="1.000000" fill-rule="nonzero"/>
		<path id="Vector" d="M16.46 50.79C16.33 51.15 16.17 51.5 16.01 51.85C15.8 52.29 16.04 52.88 16.59 52.87C16.98 52.85 17.29 52.68 17.57 52.41C17.66 52.33 17.75 52.24 17.83 52.15C17.94 52.04 17.8 52.22 17.88 52.11C17.86 52.14 17.77 52.13 17.85 52.14C17.64 51.86 17.42 51.57 17.2 51.28C17.15 51.59 17.08 51.89 17.03 52.19C16.95 52.55 17.13 52.93 17.5 53.03C17.83 53.12 18.25 52.92 18.33 52.56C18.38 52.25 18.45 51.95 18.5 51.64C18.59 51.18 18.31 50.83 17.85 50.79C17.48 50.75 17.15 50.95 16.88 51.19C16.79 51.28 16.71 51.37 16.61 51.46C16.58 51.48 16.55 51.51 16.52 51.54C16.54 51.52 16.55 51.51 16.56 51.5C16.5 51.54 16.5 51.54 16.57 51.51C16.5 51.53 16.5 51.53 16.59 51.51C16.78 51.85 16.97 52.19 17.17 52.53C17.38 52.08 17.58 51.62 17.76 51.15C17.89 50.81 17.62 50.41 17.29 50.32C16.91 50.22 16.6 50.45 16.46 50.79Z" fill="#727272" fill-opacity="1.000000" fill-rule="nonzero"/>
		<path id="Vector" d="M13.13 58.89C13.07 59.26 13.01 59.64 12.94 60.02C12.9 60.32 12.98 60.62 13.25 60.78C13.5 60.92 13.87 60.9 14.07 60.67C14.2 60.53 14.33 60.38 14.46 60.23C14.55 60.13 14.67 59.94 14.77 59.89C14.66 59.92 14.55 59.95 14.43 59.98C14.45 59.98 14.48 59.98 14.5 59.97C14.39 59.94 14.28 59.91 14.16 59.88C14.18 59.89 14.2 59.91 14.21 59.92C14.1 59.73 13.99 59.53 13.88 59.34C13.92 59.72 13.81 60.16 13.77 60.55C13.7 61.11 14.37 61.32 14.78 61.13C15.31 60.89 15.66 60.43 15.85 59.89C15.47 59.99 15.1 60.08 14.73 60.18C14.71 60.1 14.7 60.01 14.68 59.93C14.46 60.77 15.77 61.13 15.98 60.29C16.08 59.9 15.99 59.48 15.68 59.23C15.27 58.9 14.73 59.02 14.55 59.53C14.47 59.75 14.3 59.87 14.1 59.97C14.43 60.16 14.77 60.35 15.11 60.55C15.18 59.95 15.5 58.88 14.68 58.65C13.98 58.45 13.49 59.28 13.12 59.72C13.49 59.94 13.86 60.16 14.24 60.38C14.3 60 14.37 59.62 14.43 59.25C14.49 58.89 14.33 58.52 13.96 58.41C13.64 58.33 13.19 58.52 13.13 58.89Z" fill="#727272" fill-opacity="1.000000" fill-rule="nonzero"/>
		<path id="Vector" d="M12.55 67.03C12.6 67.56 12.65 68.1 12.69 68.62C12.76 69.38 13.77 69.55 14.02 68.8C14.15 68.39 14.34 68.01 14.58 67.64C14.17 67.59 13.76 67.54 13.35 67.48C13.51 67.87 13.61 68.28 13.67 68.7C13.74 69.18 14.32 69.26 14.66 69.11C14.83 69.03 14.97 68.88 15.06 68.72C15.1 68.65 15.13 68.56 15.16 68.48C15.17 68.44 15.18 68.4 15.19 68.36C15.21 68.29 15.2 68.3 15.17 68.37C15.07 68.43 14.98 68.49 14.88 68.55C14.9 68.54 14.93 68.54 14.95 68.53C14.83 68.53 14.71 68.53 14.59 68.53C14.58 68.52 14.57 68.52 14.57 68.51C14.49 68.43 14.41 68.35 14.33 68.27C14.34 68.28 14.35 68.3 14.36 68.32C14.34 68.14 14.32 67.97 14.29 67.8C14.29 67.82 14.29 67.84 14.29 67.86C14.24 68.22 14.37 68.59 14.76 68.69C15.07 68.78 15.54 68.59 15.59 68.22C15.63 67.93 15.6 67.66 15.39 67.44C15.21 67.26 14.94 67.18 14.68 67.2C14.42 67.23 14.2 67.39 14.06 67.61C14 67.7 13.92 67.83 13.91 67.94C13.91 68.1 13.84 67.99 13.99 67.92C14.31 68.06 14.64 68.19 14.97 68.33C14.91 67.91 14.81 67.51 14.65 67.11C14.43 66.58 13.75 66.43 13.42 66.95C13.12 67.41 12.9 67.91 12.73 68.43C13.16 68.49 13.6 68.55 14.05 68.61C14 68.08 13.95 67.55 13.91 67.02C13.88 66.65 13.62 66.34 13.24 66.34C12.89 66.36 12.52 66.67 12.55 67.03Z" fill="#727272" fill-opacity="1.000000" fill-rule="nonzero"/>
		<path id="Vector" d="M14.17 76.57C14.22 77.35 14.61 78.03 15.29 78.43C15.73 78.69 16.29 78.36 16.3 77.84C16.3 77.45 16.39 77.08 16.55 76.72C16.17 76.81 15.8 76.91 15.42 77.01C15.6 77.24 15.8 77.44 16.02 77.62C16.38 77.92 17.03 77.87 17.15 77.32C17.17 77.2 17.2 77.1 17.24 76.99C16.87 77.09 16.5 77.18 16.12 77.28C16.16 77.26 16.18 77.29 16.18 77.36C16.32 77.7 16.81 77.77 17.1 77.6C17.44 77.4 17.48 77.02 17.34 76.68C17.28 76.54 17.19 76.42 17.07 76.33C16.65 76 16.14 76.12 15.94 76.63C15.9 76.74 15.87 76.85 15.85 76.96C16.22 76.86 16.59 76.76 16.97 76.67C16.75 76.48 16.55 76.28 16.37 76.06C16.01 75.62 15.42 75.94 15.25 76.35C15.05 76.83 14.96 77.33 14.95 77.84C15.29 77.65 15.62 77.45 15.96 77.26C15.7 77.11 15.53 76.87 15.51 76.57C15.47 75.71 14.12 75.7 14.17 76.57Z" fill="#727272" fill-opacity="1.000000" fill-rule="nonzero"/>
		<path id="Vector" d="M16.94 85.84C17.1 86.25 17.29 86.62 17.55 86.98C17.94 87.53 18.74 87.33 18.8 86.64C18.81 86.6 18.88 86.1 18.85 86.07C18.66 86.2 18.47 86.32 18.28 86.44C18.32 86.5 18.36 86.56 18.41 86.62C18.58 86.84 18.79 87.02 19.07 87.1C19.28 87.15 19.52 87.13 19.71 87.01C19.83 86.93 19.91 86.83 19.98 86.7C20 86.65 20.02 86.59 20.04 86.54C20.15 86.21 19.95 86.16 19.46 86.38C19.72 87.2 21.03 86.85 20.75 86.02C20.56 85.45 20.02 85.08 19.42 85.3C19.18 85.4 18.97 85.58 18.85 85.81C18.81 85.89 18.68 86.2 18.73 86.29C18.99 86.14 19.24 85.98 19.5 85.84C19.47 85.79 19.43 85.75 19.4 85.71C19.19 85.27 18.56 85.02 18.11 85.18C17.48 85.41 17.51 86.08 17.46 86.64C17.88 86.53 18.29 86.42 18.72 86.3C18.53 86.05 18.37 85.78 18.25 85.49C17.93 84.69 16.63 85.03 16.94 85.84Z" fill="#727272" fill-opacity="1.000000" fill-rule="nonzero"/>
		<path id="Vector" d="M24.13 50.98C23.65 51.34 23.24 51.78 22.98 52.33C22.63 53.05 23.44 53.62 24.04 53.15C24.18 53.04 24.33 52.92 24.47 52.81C24.53 52.76 24.59 52.71 24.66 52.66C24.69 52.64 24.72 52.61 24.76 52.59C24.87 52.51 24.81 52.52 24.58 52.62C24.47 52.59 24.36 52.56 24.24 52.53C24.25 52.54 24.27 52.55 24.28 52.56C24.2 52.48 24.12 52.4 24.04 52.32C24.02 52.26 24.01 52.2 23.99 52.15C24 52.08 24 52.07 23.98 52.13C23.95 52.15 23.94 52.3 23.94 52.33C23.91 52.53 23.93 52.74 24.04 52.92C24.14 53.1 24.31 53.25 24.5 53.3C24.59 53.32 24.69 53.33 24.77 53.33C24.85 53.33 24.93 53.32 25 53.29C25.09 53.26 25.06 53.25 24.9 53.26C24.8 53.2 24.7 53.15 24.6 53.09C24.62 53.1 24.63 53.11 24.64 53.13C24.59 53.03 24.53 52.93 24.47 52.83C24.47 52.84 24.48 52.86 24.48 52.88C24.5 52.7 24.53 52.53 24.55 52.35C24.54 52.37 24.54 52.38 24.53 52.39C24.12 53.16 25.28 53.84 25.69 53.07C25.86 52.75 25.82 52.38 25.55 52.13C25.41 51.99 25.21 51.91 25.02 51.91C24.9 51.9 24.77 51.97 24.67 51.96C24.79 52 24.9 52.03 25.02 52.05C25 52.04 24.98 52.03 24.97 52.02C25.05 52.1 25.13 52.18 25.21 52.26C25.2 52.24 25.19 52.23 25.18 52.21C25.21 52.32 25.24 52.43 25.27 52.55C25.26 52.47 25.28 52.51 25.31 52.38C25.34 52.23 25.35 52.05 25.31 51.89C25.24 51.57 24.99 51.33 24.67 51.28C24.33 51.21 24.11 51.39 23.85 51.59C23.59 51.78 23.34 51.99 23.08 52.19C23.44 52.46 23.79 52.73 24.14 53.01C24.3 52.67 24.51 52.37 24.81 52.14C25.1 51.92 25.25 51.55 25.05 51.22C24.89 50.93 24.43 50.76 24.13 50.98Z" fill="#727272" fill-opacity="1.000000" fill-rule="nonzero"/>
		<path id="Vector" d="M21.5 58.59C21.39 59.13 21.28 59.67 21.17 60.22C21.03 60.9 21.77 61.3 22.29 60.87C22.45 60.75 22.58 60.59 22.68 60.42C22.75 60.3 22.83 60.06 22.86 60C22.78 60.08 22.7 60.17 22.62 60.25C22.64 60.23 22.66 60.22 22.68 60.2C22.57 60.23 22.46 60.26 22.34 60.29C22.37 60.29 22.4 60.29 22.42 60.28C22.31 60.25 22.2 60.22 22.08 60.19C21.98 60.14 21.97 59.97 22 60.2C22.01 60.26 22.02 60.31 22.04 60.36C22.11 60.56 22.22 60.74 22.39 60.87C22.54 60.99 22.73 61.05 22.93 61.04C23.05 61.04 23.16 61.01 23.27 60.95C23.33 60.93 23.37 60.9 23.42 60.86C23.54 60.78 23.5 60.78 23.33 60.86C23.22 60.83 23.11 60.8 22.99 60.77C23.01 60.78 23.01 60.79 23.02 60.83C23.31 61.64 24.61 61.29 24.32 60.47C24.2 60.11 24.01 59.78 23.67 59.61C23.49 59.51 23.26 59.48 23.07 59.53C22.87 59.57 22.75 59.71 22.58 59.79C22.69 59.76 22.81 59.72 22.92 59.7C22.9 59.7 22.87 59.7 22.85 59.7C22.96 59.73 23.07 59.76 23.19 59.79C23.31 60 23.35 60.03 23.3 59.88C23.29 59.82 23.28 59.76 23.27 59.71C23.24 59.59 23.19 59.47 23.13 59.37C22.96 59.11 22.69 58.93 22.38 58.94C22.07 58.94 21.8 59.12 21.65 59.39C21.53 59.61 21.54 59.75 21.33 59.92C21.71 60.14 22.08 60.35 22.46 60.58C22.57 60.03 22.68 59.49 22.79 58.95C22.97 58.1 21.68 57.74 21.5 58.59Z" fill="#727272" fill-opacity="1.000000" fill-rule="nonzero"/>
		<path id="Vector" d="M20.98 65.5C20.84 66.22 20.75 66.96 20.73 67.69C20.71 68.2 21.31 68.53 21.74 68.28C21.94 68.16 22.08 68 22.19 67.8C22.23 67.72 22.35 67.55 22.33 67.48C22.32 67.47 22.28 67.53 22.3 67.52C22.19 67.55 22.07 67.58 21.96 67.61C21.95 67.61 21.94 67.61 21.93 67.62C21.85 67.54 21.76 67.46 21.68 67.37C21.76 67.47 21.75 67.46 21.76 67.57C21.81 68.12 22.47 68.49 22.91 68.05C22.96 67.99 23.01 67.94 23.06 67.89C22.97 67.94 22.87 67.93 22.77 67.87C22.72 67.78 22.66 67.68 22.6 67.58C22.61 67.6 22.62 67.63 22.63 67.66C22.76 68 23.09 68.24 23.46 68.13C23.79 68.04 24.06 67.64 23.93 67.3C23.58 66.34 22.56 66.46 21.96 67.09C22.34 67.25 22.72 67.41 23.11 67.57C23.05 66.91 22.73 66.21 21.96 66.26C21.64 66.27 21.37 66.46 21.2 66.73C21.14 66.82 21.1 66.93 21.06 67.03C21.01 67.14 20.92 67.18 21.06 67.1C21.4 67.3 21.73 67.49 22.07 67.69C22.09 67.07 22.16 66.46 22.28 65.86C22.44 65.01 21.15 64.65 20.98 65.5Z" fill="#727272" fill-opacity="1.000000" fill-rule="nonzero"/>
		<path id="Vector" d="M21.65 73.22C21.8 73.83 21.98 74.42 22.2 75C22.37 75.47 22.94 75.67 23.33 75.3C23.5 75.13 23.61 74.93 23.67 74.7C23.69 74.61 23.71 74.49 23.72 74.4C23.73 74.11 23.7 74.35 23.72 74.34C23.61 74.37 23.5 74.4 23.38 74.43C23.41 74.43 23.44 74.42 23.47 74.42C23.36 74.39 23.25 74.36 23.13 74.33C23.04 74.29 23.07 74.25 23.14 74.38C23.18 74.44 23.21 74.49 23.25 74.55C23.39 74.73 23.56 74.85 23.79 74.89C23.99 74.91 24.19 74.86 24.36 74.75C24.45 74.68 24.54 74.6 24.6 74.5C24.63 74.45 24.65 74.39 24.67 74.34C24.76 74.16 24.69 74.21 24.45 74.48C24.33 74.48 24.21 74.48 24.09 74.48C24.03 74.43 23.98 74.38 23.93 74.34C23.9 74.23 23.87 74.11 23.84 74C23.84 74.02 23.84 74.05 23.84 74.08C23.83 74.95 25.17 74.95 25.19 74.08C25.2 73.62 24.88 73.27 24.45 73.18C24.21 73.13 23.98 73.18 23.79 73.32C23.69 73.38 23.62 73.46 23.55 73.56C23.54 73.58 23.53 73.61 23.51 73.64C23.39 73.87 23.42 73.86 23.61 73.63C23.72 73.6 23.83 73.56 23.95 73.54C23.93 73.54 23.9 73.54 23.88 73.55C23.99 73.58 24.11 73.61 24.22 73.64C24.41 73.73 24.32 73.7 24.24 73.57C24.19 73.47 24.12 73.38 24.04 73.31C23.78 73.08 23.45 73.02 23.13 73.13C22.87 73.22 22.68 73.42 22.55 73.65C22.48 73.78 22.44 73.91 22.41 74.06C22.4 74.12 22.41 74.3 22.37 74.34C22.75 74.44 23.12 74.54 23.5 74.64C23.28 74.06 23.1 73.46 22.95 72.86C22.73 72.02 21.43 72.38 21.65 73.22Z" fill="#727272" fill-opacity="1.000000" fill-rule="nonzero"/>
		<path id="Vector" d="M22.33 79.68C22.57 80.4 22.88 81.09 23.26 81.74C23.53 82.2 24.14 82.15 24.42 81.74C24.5 81.62 24.55 81.51 24.59 81.38C24.59 81.34 24.59 81.3 24.6 81.26C24.67 81 24.61 81.01 24.41 81.29C24.28 81.29 24.17 81.29 24.05 81.29C23.86 81.23 23.94 81.25 24.04 81.35C24.11 81.43 24.2 81.51 24.3 81.57C24.49 81.67 24.72 81.72 24.94 81.7C25.44 81.66 25.79 81.33 25.95 80.87C26.25 80.06 24.95 79.7 24.66 80.51C24.74 80.29 24.95 80.41 24.92 80.3C24.89 80.23 24.73 80.12 24.66 80.08C24.44 79.96 24.18 79.93 23.94 80.01C23.72 80.08 23.54 80.25 23.43 80.45C23.33 80.63 23.36 80.9 23.25 81.06C23.64 81.06 24.03 81.06 24.41 81.06C24.09 80.5 23.82 79.93 23.62 79.33C23.35 78.51 22.05 78.86 22.33 79.68Z" fill="#727272" fill-opacity="1.000000" fill-rule="nonzero"/>
		<path id="Vector" d="M24.1 87.4C24.1 87.77 24.15 88.14 24.27 88.5C24.36 88.75 24.56 88.94 24.83 88.98C25.08 89.01 25.39 88.9 25.5 88.65C25.58 88.49 25.65 88.33 25.73 88.17C25.76 88.09 25.8 88.02 25.83 87.95C25.85 87.91 25.87 87.87 25.89 87.83C25.79 87.89 25.69 87.95 25.59 88.01C25.6 88 25.62 88 25.63 87.99C25.51 87.99 25.4 87.99 25.28 87.99C25.25 87.98 25.23 87.97 25.2 87.96C25.12 87.88 25.04 87.8 24.96 87.72C24.89 87.6 24.96 87.7 24.98 87.77C25.01 87.85 25.03 87.91 25.06 87.99C25.11 88.13 25.15 88.27 25.2 88.41C25.32 88.76 25.66 88.98 26.03 88.88C26.36 88.79 26.62 88.4 26.5 88.05C26.31 87.49 26.15 86.57 25.37 86.67C24.76 86.76 24.56 87.49 24.33 87.97C24.74 88.03 25.15 88.08 25.56 88.13C25.48 87.87 25.44 87.65 25.43 87.39C25.43 87.04 25.13 86.7 24.76 86.71C24.41 86.73 24.09 87.02 24.1 87.4Z" fill="#727272" fill-opacity="1.000000" fill-rule="nonzero"/>
		<path id="Vector" d="M30.28 88.22C30.24 88.52 30.2 88.83 30.17 89.14C30.13 89.43 30.4 89.72 30.66 89.79C30.97 89.88 31.25 89.73 31.42 89.48C31.54 89.31 31.66 89.14 31.78 88.96C31.84 88.88 31.89 88.8 31.95 88.72C31.97 88.69 31.99 88.66 32.02 88.63C32.11 88.49 32.1 88.5 31.98 88.65C31.87 88.68 31.76 88.72 31.64 88.74C31.66 88.74 31.68 88.74 31.7 88.74C31.59 88.71 31.48 88.68 31.36 88.65C31.23 88.42 31.18 88.37 31.23 88.52C31.24 88.57 31.25 88.63 31.26 88.68C31.28 88.8 31.31 88.91 31.33 89.02C31.38 89.25 31.41 89.53 31.53 89.74C31.64 89.94 31.84 90.11 32.06 90.17C32.41 90.27 32.69 90.09 32.89 89.82C33.11 89.53 32.93 89.06 32.65 88.9C32.3 88.69 31.95 88.85 31.73 89.14C31.72 89.15 31.71 89.17 31.7 89.18C31.89 89.06 32.09 88.95 32.28 88.84C32.27 88.84 32.26 88.85 32.24 88.85C32.36 88.88 32.47 88.91 32.58 88.94C32.7 89 32.77 89.33 32.71 88.99C32.69 88.9 32.67 88.81 32.65 88.71C32.61 88.55 32.58 88.38 32.54 88.21C32.46 87.86 32.25 87.52 31.89 87.41C31.48 87.3 31.15 87.54 30.93 87.84C30.7 88.15 30.48 88.47 30.26 88.79C30.68 88.9 31.1 89.01 31.52 89.13C31.55 88.82 31.59 88.51 31.62 88.21C31.67 87.84 31.28 87.53 30.95 87.53C30.55 87.54 30.32 87.86 30.28 88.22Z" fill="#727272" fill-opacity="1.000000" fill-rule="nonzero"/>
		<path id="Vector" d="M30.92 75.87C30.76 76.59 30.67 77.33 30.69 78.07C30.7 78.7 31.63 79.03 31.94 78.41C32.08 78.14 32.21 77.87 32.35 77.6C32.45 77.41 32.52 77.16 32.7 77.02C32.6 77.08 32.5 77.13 32.4 77.19C32.4 77.19 32.4 77.18 32.41 77.18C32.19 77.01 31.97 76.85 31.75 76.68C31.84 77 31.93 77.32 32.01 77.64C32.12 78.05 32.63 78.29 33 78.05C33.06 78.01 33.12 77.96 33.19 77.92C33.9 77.45 33.23 76.27 32.51 76.76C32.45 76.8 32.38 76.84 32.32 76.88C32.65 77.02 32.98 77.15 33.31 77.29C33.22 76.97 33.14 76.65 33.05 76.33C32.97 76.04 32.7 75.83 32.4 75.83C31.45 75.85 31.13 77.03 30.78 77.73C31.2 77.85 31.62 77.96 32.04 78.08C32.03 77.45 32.08 76.85 32.22 76.23C32.41 75.38 31.11 75.02 30.92 75.87Z" fill="#727272" fill-opacity="1.000000" fill-rule="nonzero"/>
		<path id="Vector" d="M29.64 65.75C29.67 66.28 29.7 66.81 29.73 67.34C29.76 68.01 30.62 68.27 30.98 67.69C31.24 67.27 31.5 66.86 31.76 66.45C31.38 66.45 30.99 66.45 30.6 66.45C30.7 66.61 30.76 66.76 30.76 66.95C30.8 67.54 31.47 67.83 31.91 67.42C32.25 67.12 32.47 66.75 32.64 66.32C32.31 66.45 31.98 66.59 31.65 66.73C31.65 66.73 31.65 66.74 31.65 66.75C31.59 66.65 31.53 66.55 31.47 66.45C31.49 66.48 31.49 66.51 31.51 66.54C31.65 66.87 31.95 67.11 32.34 67.01C32.65 66.92 32.95 66.52 32.81 66.18C32.69 65.9 32.57 65.73 32.33 65.55C31.95 65.27 31.48 65.59 31.34 65.96C31.26 66.17 31.12 66.32 30.96 66.47C31.34 66.63 31.73 66.79 32.11 66.95C32.09 66.52 31.98 66.13 31.76 65.76C31.5 65.32 30.87 65.34 30.6 65.76C30.34 66.18 30.08 66.59 29.82 67C30.24 67.12 30.66 67.23 31.08 67.35C31.05 66.82 31.02 66.29 30.99 65.76C30.93 64.89 29.59 64.88 29.64 65.75Z" fill="#727272" fill-opacity="1.000000" fill-rule="nonzero"/>
		<path id="Vector" d="M30 56.81C29.96 57.15 29.94 57.5 29.95 57.84C29.97 58.31 30.53 58.74 30.97 58.43C31.19 58.26 31.33 58.08 31.41 57.81C31.42 57.75 31.44 57.68 31.45 57.61C31.46 57.56 31.49 57.55 31.45 57.6C31.21 57.81 30.97 58.12 30.59 57.67C30.63 57.72 30.62 57.72 30.59 57.66C30.63 57.73 30.65 57.8 30.68 57.87C30.73 57.99 30.81 58.09 30.9 58.18C31.18 58.46 31.59 58.51 31.93 58.32C32.25 58.14 32.35 57.7 32.17 57.39C31.98 57.07 31.57 56.97 31.25 57.15C31.24 57.16 31.22 57.17 31.21 57.18C31.32 57.14 31.43 57.11 31.55 57.09C31.58 57.08 31.91 57.26 31.88 57.27C31.9 57.31 31.9 57.31 31.89 57.28C31.87 57.24 31.86 57.2 31.84 57.17C31.79 57.04 31.72 56.91 31.62 56.81C31.41 56.58 31.06 56.46 30.76 56.56C30.46 56.65 30.27 56.89 30.18 57.17C30.15 57.24 30.15 57.3 30.13 57.37C30.12 57.4 30.11 57.42 30.1 57.46C30.09 57.51 30.09 57.51 30.11 57.46C30.14 57.37 30.19 57.3 30.28 57.26C30.62 57.45 30.96 57.65 31.3 57.84C31.29 57.5 31.31 57.16 31.35 56.82C31.39 56.46 31.01 56.13 30.67 56.14C30.28 56.16 30.05 56.44 30 56.81Z" fill="#727272" fill-opacity="1.000000" fill-rule="nonzero"/>
		<path id="Vector" d="M29.59 49.88C29.46 50.37 29.53 50.88 29.79 51.32C30.1 51.85 30.83 51.69 31.02 51.16C31.09 50.96 30.98 51.28 31.05 51.08C31.08 51 31.1 51.04 31.03 51.07C30.83 51.18 30.55 51.1 30.49 50.83C30.57 51.19 30.97 51.4 31.32 51.31C31.67 51.21 31.87 50.83 31.79 50.47C31.67 49.96 31.11 49.68 30.61 49.8C30.12 49.92 29.89 50.35 29.72 50.79C30.13 50.74 30.54 50.68 30.95 50.63C30.89 50.51 30.88 50.52 30.86 50.38C30.87 50.45 30.87 50.36 30.87 50.34C30.88 50.14 30.84 50.42 30.89 50.23C30.97 49.89 30.77 49.48 30.41 49.39C30.07 49.32 29.68 49.51 29.59 49.88Z" fill="#727272" fill-opacity="1.000000" fill-rule="nonzero"/>
		<path id="Vector" d="M10.36 48.28C10.16 48.54 9.99 48.82 9.83 49.11C9.56 49.58 10.01 50.32 10.59 50.1C10.79 50.02 10.99 49.94 11.2 49.86C10.93 49.71 10.65 49.55 10.37 49.39C10.41 49.49 10.42 49.56 10.42 49.67C10.42 50.01 10.73 50.37 11.09 50.34C11.43 50.31 11.72 50.23 12.02 50.09C12.34 49.93 12.43 49.46 12.26 49.17C12.06 48.83 11.67 48.76 11.34 48.92C11.27 48.95 11.15 48.98 11.09 48.99C11.32 49.21 11.54 49.44 11.77 49.67C11.77 49.45 11.74 49.23 11.67 49.03C11.55 48.71 11.2 48.42 10.84 48.56C10.63 48.63 10.43 48.71 10.22 48.79C10.47 49.12 10.73 49.45 10.98 49.78C11.14 49.49 11.32 49.22 11.51 48.96C11.73 48.66 11.56 48.2 11.27 48.03C10.94 47.84 10.58 47.99 10.36 48.28Z" fill="#727272" fill-opacity="1.000000" fill-rule="nonzero"/>
		<path id="Vector" d="M6.56 55.87C6.3 56.44 6.08 57.01 5.9 57.61C5.79 57.98 6.04 58.32 6.37 58.44C6.66 58.55 6.97 58.48 7.22 58.32C7.33 58.25 7.4 58.18 7.48 58.08C7.79 57.71 7.36 58.19 7.11 57.88C7.05 57.78 6.99 57.68 6.94 57.58C6.9 57.46 6.93 57.72 6.93 57.71C6.94 57.82 6.97 57.92 7.02 58.02C7.12 58.2 7.31 58.34 7.51 58.39C7.87 58.49 8.34 58.35 8.49 57.98C8.64 57.65 8.59 57.26 8.25 57.06C7.97 56.89 7.47 56.96 7.33 57.3C7.34 57.28 7.36 57.27 7.38 57.25C7.47 57.19 7.57 57.14 7.67 57.08C7.81 57.12 7.94 57.16 8.08 57.2C8.13 57.3 8.19 57.4 8.25 57.5C8.29 57.62 8.26 57.31 8.25 57.28C8.21 57.14 8.15 57.02 8.06 56.92C7.9 56.75 7.68 56.64 7.44 56.63C7.22 56.62 7.02 56.69 6.84 56.81C6.75 56.87 6.68 56.94 6.61 57.02C6.34 57.34 6.53 57.07 6.73 57.14C6.89 57.42 7.05 57.7 7.21 57.97C7.35 57.49 7.52 57.02 7.73 56.56C7.87 56.23 7.82 55.84 7.48 55.64C7.19 55.46 6.7 55.54 6.56 55.87Z" fill="#727272" fill-opacity="1.000000" fill-rule="nonzero"/>
		<path id="Vector" d="M5.07 63.85C4.92 64.62 4.92 65.38 5.08 66.15C5.15 66.54 5.56 66.68 5.91 66.63C6.1 66.59 6.29 66.48 6.43 66.33C6.48 66.27 6.54 66.19 6.59 66.12C6.61 66.08 6.64 66.04 6.66 65.99C6.7 65.93 6.69 65.94 6.61 66C6.49 66 6.37 66 6.25 66C6.28 66.01 6.31 66.02 6.34 66.03C6.25 65.97 6.15 65.91 6.05 65.85C6 65.75 5.99 65.75 6.04 65.86C6.06 65.92 6.08 65.97 6.11 66.03C6.18 66.16 6.28 66.27 6.4 66.35C6.7 66.55 6.98 66.54 7.3 66.39C7.63 66.24 7.71 65.76 7.54 65.47C7.34 65.12 6.95 65.07 6.62 65.22C6.6 65.23 6.57 65.25 6.55 65.26C6.73 65.23 6.9 65.21 7.07 65.19C7.04 65.18 7.02 65.17 6.99 65.16C7.09 65.22 7.19 65.28 7.29 65.34C7.31 65.43 7.31 65.44 7.29 65.37C7.27 65.3 7.24 65.23 7.21 65.17C7.17 65.09 7.12 65.02 7.06 64.95C6.87 64.75 6.61 64.66 6.34 64.68C6.1 64.71 5.89 64.82 5.73 64.99C5.65 65.07 5.58 65.17 5.52 65.27C5.51 65.3 5.49 65.32 5.47 65.35C5.39 65.48 5.41 65.46 5.55 65.31C5.82 65.47 6.1 65.63 6.38 65.79C6.27 65.26 6.27 64.73 6.37 64.2C6.43 63.84 6.27 63.47 5.9 63.37C5.56 63.29 5.13 63.49 5.07 63.85Z" fill="#727272" fill-opacity="1.000000" fill-rule="nonzero"/>
		<path id="Vector" d="M6.03 73.61C6.21 73.99 6.4 74.37 6.59 74.75C6.75 75.08 7.21 75.16 7.51 74.99C7.75 74.85 7.91 74.64 7.99 74.37C8.03 74.25 8.05 74.09 8.03 73.97C8.02 73.82 8.08 73.86 8.01 73.93C7.91 73.99 7.81 74.05 7.71 74.11C7.7 74.11 7.69 74.11 7.69 74.11C7.57 74.08 7.46 74.05 7.34 74.02C7.58 74.16 7.69 74.38 8.03 74.38C8.43 74.38 8.52 74.14 8.77 73.9C8.67 73.96 8.57 74.01 8.47 74.07C8.34 73.99 8.21 73.91 8.08 73.83C8.13 74.19 8.59 74.38 8.91 74.3C9.29 74.19 9.43 73.83 9.38 73.47C9.32 73.06 8.94 72.76 8.54 72.72C8.08 72.67 7.78 72.92 7.56 73.3C7.64 73.22 7.72 73.14 7.8 73.06C7.78 73.08 7.75 73.1 7.73 73.11C7.84 73.08 7.95 73.05 8.07 73.02C8.05 73.02 8.02 73.02 8 73.02C8.11 73.05 8.22 73.09 8.34 73.11C8.26 73.07 8.05 72.84 7.87 72.79C7.61 72.72 7.34 72.77 7.13 72.93C6.95 73.07 6.82 73.28 6.75 73.5C6.7 73.64 6.75 73.92 6.68 74.02C6.76 73.94 6.84 73.86 6.92 73.78C6.9 73.79 6.87 73.81 6.84 73.82C7.14 73.9 7.45 73.98 7.76 74.06C7.57 73.69 7.38 73.31 7.2 72.93C6.8 72.14 5.64 72.83 6.03 73.61Z" fill="#727272" fill-opacity="1.000000" fill-rule="nonzero"/>
		<path id="Vector" d="M10.18 83.65C10.16 84.24 10.76 84.56 11.26 84.41C11.51 84.33 11.68 84.16 11.8 83.94C11.81 83.91 11.83 83.87 11.85 83.83C11.95 83.67 11.85 83.72 11.55 83.97C11.41 83.96 11.47 83.96 11.57 84.01C11.89 84.19 12.3 84.09 12.49 83.77C12.67 83.46 12.56 83.02 12.25 82.84C11.91 82.66 11.54 82.55 11.17 82.7C10.98 82.78 10.82 82.92 10.72 83.1C10.68 83.15 10.65 83.21 10.64 83.27C10.63 83.28 10.62 83.3 10.61 83.32C10.84 83.06 11.08 83.04 11.34 83.25C11.4 83.35 11.46 83.45 11.51 83.55C11.52 83.59 11.52 83.62 11.53 83.66C11.54 83.3 11.21 82.96 10.86 82.98C10.47 83 10.19 83.28 10.18 83.65Z" fill="#727272" fill-opacity="1.000000" fill-rule="nonzero"/>
		<path id="Vector" d="M35.03 50.15C35.11 50.56 35.25 50.94 35.43 51.31C35.59 51.66 36.05 51.7 36.35 51.55C36.52 51.47 36.66 51.32 36.75 51.15C36.77 51.1 36.79 51.05 36.82 50.99C36.96 50.68 36.81 51.15 36.47 51.11C36.36 51.08 36.24 51.05 36.13 51.02C36.05 50.99 36.24 51.11 36.24 51.11C36.31 51.16 36.36 51.19 36.45 51.23C36.62 51.31 36.8 51.32 36.99 51.29C37.39 51.23 37.63 50.96 37.78 50.6C37.92 50.26 37.63 49.85 37.31 49.76C36.92 49.66 36.62 49.9 36.48 50.24C36.64 49.95 36.84 49.88 37.07 50.05C37.05 50.03 37.03 50.01 37.01 50C36.92 49.91 36.76 49.82 36.65 49.79C36.43 49.73 36.2 49.77 36.01 49.88C35.85 49.98 35.74 50.13 35.66 50.29C35.65 50.33 35.62 50.37 35.61 50.42C35.56 50.56 35.58 50.43 35.66 50.39C35.97 50.47 36.28 50.55 36.58 50.63C36.46 50.37 36.38 50.09 36.32 49.8C36.26 49.44 35.83 49.24 35.49 49.33C35.13 49.42 34.97 49.79 35.03 50.15Z" fill="#727272" fill-opacity="1.000000" fill-rule="nonzero"/>
		<path id="Vector" d="M36.59 57.89C36.68 58.32 36.77 58.75 36.85 59.18C37 59.89 37.94 59.76 38.15 59.18C38.22 58.98 38.33 58.86 38.48 58.72C38.13 58.68 37.78 58.63 37.42 58.59C37.54 58.86 37.66 59.13 37.78 59.4C37.91 59.71 38.43 59.85 38.7 59.65C38.86 59.53 38.99 59.42 39.09 59.24C39.13 59.17 39.17 59.1 39.19 59.02C39.2 58.99 39.21 58.96 39.23 58.93C39.34 58.74 39.13 58.67 38.61 58.75C38.56 59.11 38.95 59.42 39.28 59.42C39.68 59.42 39.9 59.11 39.95 58.75C40.03 58.18 39.5 57.67 38.96 57.67C38.69 57.67 38.44 57.79 38.26 57.99C38.17 58.08 38.11 58.18 38.05 58.29C38.02 58.36 37.88 58.58 38.02 58.48C38.32 58.56 38.63 58.64 38.94 58.72C38.82 58.45 38.7 58.18 38.58 57.91C38.4 57.48 37.81 57.51 37.53 57.77C37.2 58.06 37 58.42 36.85 58.82C37.28 58.82 37.71 58.82 38.14 58.82C38.06 58.39 37.97 57.97 37.88 57.54C37.72 56.68 36.42 57.04 36.59 57.89Z" fill="#727272" fill-opacity="1.000000" fill-rule="nonzero"/>
		<path id="Vector" d="M37.77 68.24C37.73 68.57 37.77 68.92 37.86 69.25C37.97 69.64 38.49 69.9 38.85 69.65C39.09 69.48 39.23 69.3 39.33 69.03C39.36 68.97 39.38 68.89 39.4 68.82C39.44 68.68 39.4 68.87 39.29 68.89C39.17 68.89 39.05 68.89 38.93 68.89C38.82 68.84 38.75 68.78 38.73 68.68C38.71 68.63 38.72 68.65 38.75 68.72C38.76 68.76 38.77 68.8 38.79 68.84C38.86 69.05 38.97 69.22 39.14 69.36C39.51 69.66 39.92 69.61 40.28 69.33C40.57 69.1 40.52 68.61 40.28 68.37C40 68.09 39.62 68.15 39.33 68.37C39.32 68.38 39.3 68.39 39.29 68.41C39.39 68.35 39.49 68.29 39.58 68.23C39.57 68.24 39.55 68.24 39.53 68.24C39.65 68.24 39.77 68.24 39.89 68.24C39.97 68.26 40.09 68.51 40.04 68.36C40 68.24 39.96 68.12 39.89 68.01C39.71 67.71 39.37 67.53 39.02 67.57C38.71 67.6 38.45 67.8 38.28 68.06C38.21 68.17 38.16 68.3 38.12 68.42C38.1 68.47 38.08 68.52 38.07 68.56C38.07 68.62 38.06 68.55 38.17 68.47C38.5 68.61 38.83 68.74 39.16 68.88C39.1 68.66 39.09 68.46 39.11 68.23C39.15 67.87 38.77 67.55 38.44 67.55C38.05 67.56 37.82 67.87 37.77 68.24Z" fill="#727272" fill-opacity="1.000000" fill-rule="nonzero"/>
		<path id="Vector" d="M37.4 76.2C37.36 76.64 37.4 77.07 37.47 77.51C37.55 78.02 38.27 78.15 38.59 77.81C38.71 77.68 38.83 77.56 38.96 77.45C39.07 77.35 39.18 77.25 39.27 77.19C38.95 77.05 38.62 76.92 38.29 76.78C38.33 76.9 38.33 76.76 38.32 76.89C38.32 76.8 38.26 76.98 38.31 76.9C38.13 77.22 38.23 77.64 38.55 77.82C38.86 78 39.29 77.91 39.47 77.58C39.66 77.23 39.72 76.81 39.59 76.42C39.46 76.05 38.97 75.74 38.6 76.02C38.26 76.27 37.94 76.54 37.65 76.85C38.03 76.95 38.4 77.04 38.78 77.14C38.73 76.85 38.73 76.51 38.75 76.19C38.78 75.84 38.43 75.5 38.08 75.51C37.69 75.54 37.43 75.82 37.4 76.2Z" fill="#727272" fill-opacity="1.000000" fill-rule="nonzero"/>
		<path id="Vector" d="M36.97 85.03C36.73 85.44 36.54 85.89 36.44 86.36C36.36 86.72 36.55 87.09 36.91 87.19C37.29 87.3 37.61 87.07 37.74 86.72C37.78 86.61 37.92 86.36 37.99 86.27C37.67 86.27 37.36 86.27 37.04 86.27C36.96 86.17 36.93 86.06 36.97 85.94C36.91 86.3 37.06 86.66 37.44 86.77C37.76 86.86 38.2 86.66 38.27 86.3C38.33 85.92 38.26 85.59 37.99 85.31C37.76 85.07 37.27 85.03 37.04 85.31C36.78 85.64 36.59 85.97 36.45 86.36C36.88 86.48 37.31 86.6 37.74 86.72C37.83 86.34 37.94 86.04 38.14 85.71C38.32 85.4 38.21 84.97 37.89 84.79C37.58 84.6 37.16 84.71 36.97 85.03Z" fill="#727272" fill-opacity="1.000000" fill-rule="nonzero"/>
		<path id="Vector" d="M41.89 87.73C41.62 88.09 41.49 88.55 41.46 89C41.45 89.27 41.64 89.52 41.88 89.62C42.14 89.73 42.4 89.66 42.61 89.48C42.94 89.19 43.27 88.91 43.61 88.62C43.25 88.58 42.9 88.53 42.55 88.49C42.52 88.45 42.53 88.39 42.54 88.34C42.54 88.31 42.62 88.2 42.54 88.32C42.35 88.63 42.48 89.06 42.79 89.24C43.11 89.43 43.51 89.31 43.7 89C43.93 88.63 43.93 88.17 43.71 87.8C43.47 87.4 42.98 87.38 42.65 87.66C42.32 87.95 41.99 88.23 41.66 88.52C42.04 88.68 42.42 88.84 42.8 89C42.81 88.79 42.77 89.09 42.81 88.89C42.83 88.82 42.85 88.75 42.87 88.69C42.83 88.78 42.92 88.59 42.92 88.59C42.96 88.52 43 88.46 43.05 88.41C43.27 88.12 43.09 87.65 42.8 87.49C42.47 87.28 42.12 87.44 41.89 87.73Z" fill="#727272" fill-opacity="1.000000" fill-rule="nonzero"/>
		<path id="Vector" d="M44.38 78.87C44.28 79.39 44.23 79.91 44.22 80.43C44.22 81.1 45.15 81.37 45.48 80.78C45.68 80.41 45.92 80.09 46.22 79.79C45.94 79.83 45.67 79.86 45.4 79.89C45.39 79.88 45.37 79.87 45.35 79.86C45.3 79.76 45.24 79.66 45.18 79.56C45.17 79.52 45.21 79.4 45.17 79.54C45.14 79.63 45.12 79.78 45.11 79.86C45.1 80.08 45.17 80.29 45.29 80.47C45.44 80.66 45.67 80.79 45.92 80.79C46.05 80.79 46.21 80.75 46.33 80.69C46.35 80.67 46.37 80.66 46.39 80.65C46.5 80.58 46.47 80.58 46.3 80.64C46.18 80.61 46.07 80.57 45.96 80.55C45.78 80.46 45.76 80.35 45.78 80.22C45.73 80.58 45.87 80.95 46.25 81.06C46.57 81.14 47.03 80.95 47.08 80.58C47.13 80.2 47.12 79.8 46.82 79.51C46.67 79.37 46.45 79.28 46.24 79.29C46.11 79.29 45.95 79.33 45.83 79.4C45.8 79.42 45.66 79.48 45.74 79.46C45.86 79.46 45.98 79.46 46.1 79.46C46.08 79.46 46.06 79.45 46.04 79.44C46.14 79.5 46.24 79.56 46.34 79.62C46.38 79.99 46.42 80.09 46.46 79.9C46.48 79.86 46.49 79.81 46.5 79.76C46.52 79.66 46.53 79.55 46.52 79.44C46.5 79.15 46.35 78.86 46.08 78.73C45.81 78.6 45.48 78.61 45.26 78.83C44.89 79.21 44.57 79.63 44.31 80.09C44.73 80.21 45.15 80.32 45.57 80.43C45.57 80.03 45.61 79.63 45.68 79.24C45.74 78.87 45.58 78.51 45.21 78.4C44.87 78.31 44.44 78.51 44.38 78.87Z" fill="#727272" fill-opacity="1.000000" fill-rule="nonzero"/>
		<path id="Vector" d="M45.28 69.57C45.09 70.03 45.09 70.56 45.23 71.04C45.44 71.69 46.31 71.66 46.53 71.04C46.64 70.71 46.84 70.45 47.1 70.23C46.72 70.07 46.33 69.91 45.95 69.75C45.96 69.98 45.98 70.21 46 70.44C46.02 70.83 46.28 71.07 46.67 71.11C46.88 71.14 47.08 71.07 47.26 70.95C47.34 70.9 47.4 70.84 47.46 70.77C47.48 70.74 47.51 70.72 47.53 70.69C47.61 70.6 47.55 70.62 47.33 70.74C47.22 70.71 47.1 70.68 46.99 70.65C46.95 70.61 46.91 70.57 46.87 70.53C46.84 70.42 46.81 70.3 46.79 70.19C46.79 70.21 46.79 70.22 46.79 70.24C46.82 70.13 46.85 70.02 46.88 69.9C46.87 69.91 46.86 69.93 46.85 69.94C46.4 70.69 47.56 71.37 48.01 70.62C48.28 70.19 48.06 69.62 47.59 69.45C47.34 69.36 47.09 69.38 46.86 69.5C46.77 69.55 46.69 69.62 46.61 69.7C46.59 69.72 46.58 69.74 46.56 69.76C46.47 69.85 46.51 69.85 46.67 69.76C46.89 69.98 47.12 70.21 47.34 70.44C47.33 70.21 47.31 69.98 47.3 69.75C47.26 69.15 46.6 68.88 46.15 69.27C45.72 69.66 45.42 70.13 45.23 70.67C45.66 70.67 46.1 70.67 46.53 70.67C46.44 70.4 46.47 70.19 46.58 69.93C46.72 69.59 46.43 69.18 46.11 69.09C45.72 68.98 45.42 69.23 45.28 69.57Z" fill="#727272" fill-opacity="1.000000" fill-rule="nonzero"/>
		<path id="Vector" d="M44.72 57.71C44.76 58.09 44.8 58.47 44.83 58.85C44.87 59.19 45.06 59.48 45.42 59.52C45.74 59.56 46.07 59.36 46.16 59.03C46.23 58.75 46.33 58.48 46.47 58.23C46.09 58.23 45.7 58.23 45.31 58.23C45.38 58.35 45.44 58.48 45.51 58.6C45.75 59.07 46.41 59.01 46.67 58.6C46.69 58.56 46.72 58.53 46.72 58.52C46.79 58.46 46.74 58.46 46.58 58.53C46.51 58.57 46.44 58.58 46.37 58.57C46.29 58.49 46.21 58.41 46.13 58.33C46.12 58.31 46.12 58.29 46.11 58.27C46.37 59.1 47.67 58.75 47.41 57.91C47.27 57.49 46.91 57.22 46.46 57.24C46.02 57.25 45.72 57.57 45.5 57.92C45.89 57.92 46.28 57.92 46.66 57.92C46.6 57.79 46.53 57.66 46.47 57.54C46.23 57.1 45.54 57.1 45.31 57.54C45.11 57.9 44.96 58.28 44.86 58.67C45.3 58.73 45.74 58.79 46.18 58.85C46.14 58.47 46.1 58.09 46.07 57.71C46.03 57.35 45.79 57.04 45.4 57.04C45.06 57.04 44.69 57.35 44.72 57.71Z" fill="#727272" fill-opacity="1.000000" fill-rule="nonzero"/>
		<path id="Vector" d="M41.39 50.15C41.56 50.59 41.77 50.95 42.07 51.31C42.41 51.72 43.05 51.45 43.19 51.01C43.3 50.68 43.34 50.33 43.31 49.99C42.89 50.11 42.48 50.22 42.05 50.34C42.18 50.59 42.37 50.82 42.59 51C42.87 51.23 43.27 51.28 43.54 51C43.78 50.76 43.82 50.27 43.54 50.04C43.46 49.98 43.38 49.91 43.32 49.83C43.25 49.75 43.36 49.9 43.3 49.81C43.27 49.76 43.24 49.71 43.22 49.66C43.08 49.39 42.73 49.26 42.45 49.34C42.19 49.41 41.93 49.7 41.96 49.99C41.99 50.28 41.98 50.39 41.89 50.65C42.27 50.55 42.64 50.45 43.02 50.35C42.96 50.28 42.9 50.2 42.83 50.08C42.8 50.03 42.77 49.97 42.74 49.91C42.73 49.9 42.66 49.73 42.68 49.8C42.55 49.46 42.23 49.22 41.85 49.32C41.54 49.41 41.26 49.81 41.39 50.15Z" fill="#727272" fill-opacity="1.000000" fill-rule="nonzero"/>
		<path id="Vector" d="M48.18 49.63C48.24 49.91 48.35 50.19 48.49 50.44C48.65 50.7 48.96 50.83 49.25 50.75C49.56 50.67 49.72 50.4 49.74 50.1C49.78 49.78 49.81 49.46 49.84 49.15C49.5 49.34 49.17 49.53 48.83 49.73C49.03 49.89 49.24 50.04 49.44 50.2C49.74 50.41 50.2 50.25 50.36 49.95C50.57 49.61 50.41 49.25 50.12 49.03C49.91 48.88 49.71 48.72 49.5 48.57C49.31 48.43 49.01 48.45 48.83 48.57C48.61 48.7 48.52 48.9 48.49 49.15C48.46 49.47 48.43 49.79 48.4 50.1C48.82 49.99 49.23 49.88 49.65 49.76C49.55 49.58 49.52 49.49 49.48 49.27C49.41 48.91 48.98 48.71 48.65 48.8C48.28 48.9 48.12 49.27 48.18 49.63Z" fill="#727272" fill-opacity="1.000000" fill-rule="nonzero"/>
		<path id="Vector" d="M51.17 57.74C51.23 58.12 51.32 58.48 51.44 58.84C51.58 59.27 52.03 59.45 52.43 59.25C52.68 59.12 52.83 58.89 52.9 58.62C52.93 58.5 52.93 58.37 52.94 58.24C52.94 58.19 52.95 58.15 52.95 58.1C52.94 58.29 52.82 58.41 52.57 58.47C52.46 58.44 52.35 58.41 52.23 58.38C52.76 58.65 53.17 58.82 53.78 58.69C54.62 58.5 54.26 57.19 53.42 57.38C53.21 57.43 53.09 57.31 52.91 57.22C52.59 57.06 52.23 57.09 51.96 57.3C51.75 57.47 51.66 57.69 51.62 57.95C51.61 58.05 51.61 58.14 51.6 58.24C51.59 58.33 51.59 58.33 51.6 58.26C51.56 58.42 51.61 58.35 51.75 58.08C52.08 58.22 52.41 58.35 52.74 58.49C52.62 58.13 52.53 57.77 52.47 57.39C52.4 57.03 51.96 56.83 51.64 56.92C51.26 57.01 51.11 57.38 51.17 57.74Z" fill="#727272" fill-opacity="1.000000" fill-rule="nonzero"/>
		<path id="Vector" d="M52.74 67.53C52.69 67.87 52.64 68.21 52.6 68.56C52.56 68.86 52.62 69.15 52.91 69.32C53.14 69.46 53.54 69.44 53.72 69.21C53.82 69.08 53.92 68.97 54.08 68.92C53.79 68.7 53.51 68.49 53.22 68.27C53.23 68.54 53.24 68.81 53.25 69.08C53.26 69.53 53.66 69.84 54.1 69.73C54.31 69.68 54.49 69.57 54.66 69.44L54.83 69.31C54.82 69.29 54.6 69.3 54.55 69.25C54.49 69.15 54.43 69.05 54.38 68.95C54.39 68.97 54.39 69 54.4 69.02C54.68 69.84 55.98 69.48 55.69 68.66C55.54 68.21 55.18 67.96 54.7 67.97C54.51 67.98 54.31 68.04 54.14 68.14C54.01 68.22 53.88 68.39 53.73 68.42C54.01 68.64 54.3 68.86 54.58 69.08C54.57 68.81 54.57 68.54 54.56 68.27C54.55 67.85 54.13 67.47 53.71 67.61C53.34 67.74 53 67.94 52.76 68.26C53.14 68.48 53.51 68.7 53.89 68.92C53.93 68.57 53.98 68.23 54.03 67.89C54.08 67.53 53.94 67.16 53.56 67.05C53.25 66.97 52.78 67.16 52.74 67.53Z" fill="#727272" fill-opacity="1.000000" fill-rule="nonzero"/>
		<path id="Vector" d="M50.8 78.73C50.71 79.11 50.61 79.49 50.52 79.88C50.44 80.23 50.63 80.62 51 80.71C51.32 80.8 51.63 80.73 51.89 80.52C52.1 80.35 52.18 80.08 52.37 79.92C52.27 79.98 52.17 80.03 52.08 80.09C52.11 80.08 52.14 80.07 52.17 80.05C52.05 80.05 51.94 80.05 51.82 80.05C51.85 80.06 51.88 80.07 51.91 80.07C51.78 79.97 51.65 79.86 51.51 79.76C51.5 79.7 51.51 79.72 51.52 79.81C51.55 79.88 51.58 79.96 51.62 80.04C51.71 80.19 51.85 80.29 52 80.36C52.16 80.43 52.34 80.44 52.52 80.4C52.57 80.4 52.63 80.38 52.69 80.36C52.95 80.27 52.9 80.25 52.52 80.28C52.44 80.2 52.36 80.12 52.28 80.04C52.29 80.05 52.3 80.07 52.31 80.08C52.28 79.97 52.25 79.86 52.22 79.74C52.22 79.76 52.22 79.78 52.22 79.8C52.18 80.67 53.52 80.67 53.56 79.8C53.58 79.43 53.33 79.12 52.99 79.01C52.83 78.96 52.65 78.96 52.48 79C52.42 79.01 52.19 79.06 52.26 79.06C52.37 79.1 52.48 79.13 52.6 79.15C52.58 79.14 52.56 79.12 52.54 79.11C52.62 79.19 52.7 79.27 52.78 79.35C52.75 79.29 52.68 79.05 52.56 78.93C52.39 78.75 52.06 78.67 51.82 78.74C51.62 78.79 51.45 78.91 51.31 79.06C51.24 79.14 51.18 79.23 51.13 79.33C51.11 79.36 51.09 79.39 51.08 79.42C50.95 79.59 51.04 79.58 51.36 79.4C51.52 79.68 51.67 79.95 51.83 80.23C51.92 79.85 52.02 79.47 52.11 79.08C52.3 78.24 51.01 77.88 50.8 78.73Z" fill="#727272" fill-opacity="1.000000" fill-rule="nonzero"/>
		<path id="Vector" d="M49.38 86.86C49.48 86.94 49.57 87.01 49.67 87.09C49.96 87.31 50.43 87.13 50.59 86.85C50.79 86.5 50.64 86.14 50.35 85.92C50.25 85.84 50.15 85.77 50.05 85.69C49.77 85.47 49.3 85.65 49.13 85.93C48.93 86.28 49.09 86.63 49.38 86.86Z" fill="#727272" fill-opacity="1.000000" fill-rule="nonzero"/>
	</g>
	<rect id="Frame" width="61.000000" height="46.000000" fill="#FFFFFF" fill-opacity="0"/>
	<g clip-path="url(#clip5_1599)">
		<path id="Vector" d="M19.29 44.73C19.85 40.1 16.62 36.64 13.18 33.97C11.17 32.42 9.21 31.12 7.9 28.89C7.23 27.75 6.59 26.46 6.22 25.2C5.49 22.73 6.75 18.85 9.87 21.7C11.67 23.34 12.09 25.45 13.46 27.28C14.24 28.31 15.43 28.86 16.67 28.2C20.4 26.23 17.51 19.38 16.68 16.66C15.67 13.37 15.14 10.2 16.84 7.03C17.4 5.99 18.02 4.92 18.74 3.98C19.2 3.37 19.79 2.72 20.46 2.3C21.83 1.43 22.65 1.43 24.17 1.89C25.78 2.39 25.8 2.47 26.13 4C26.28 4.71 26.34 5.48 26.38 6.21C26.45 7.76 26.33 9.31 26.01 10.83C25.41 13.7 23.68 16.25 23.3 19.17C23.02 21.31 23.22 28.14 26.81 27.5C31.01 26.75 30.71 20.09 34.91 19.2C38.4 18.46 40.1 22.24 38.62 24.84C37.82 26.25 36.48 27.34 35.2 28.31C32.91 30.03 30.11 30.93 27.86 32.66C23.79 35.82 25.14 40.78 26.81 44.85C27.14 45.63 28.44 45.29 28.11 44.49C26.99 41.75 25.57 38.39 27.1 35.51C28.51 32.85 32.23 31.91 34.63 30.34C37.88 28.21 42.54 24.21 39.79 20C37.49 16.48 33.03 17.66 30.93 20.61C30.3 21.5 29.81 22.48 29.24 23.42C28.98 23.85 28.73 24.28 28.43 24.68C28.21 24.94 27.99 25.19 27.78 25.45C26.07 25.82 25.18 25.37 25.12 24.09C23.41 20.5 25.49 16.82 26.65 13.51C27.51 11.05 27.88 8.42 27.7 5.82C27.57 4.02 27.38 1.59 25.67 0.51C24.16 -0.44 21.83 0.11 20.35 0.84C18.14 1.95 16.79 4.28 15.67 6.37C12.8 11.71 15.7 16.42 16.76 21.8C16.9 22.51 17.26 24.08 17.02 24.88C16.29 25.54 15.56 26.19 14.83 26.85C14.41 26.32 14.09 25.74 13.87 25.11C13.45 24.18 13 23.31 12.38 22.48C11.41 21.18 9.57 19.03 7.69 19.14C5.86 19.24 4.79 21.15 4.59 22.73C4.31 25.08 5.58 27.58 6.74 29.57C9.94 35.09 18.86 37.12 17.94 44.74C17.84 45.58 19.2 45.58 19.29 44.73Z" fill="#46A358" fill-opacity="1.000000" fill-rule="nonzero"/>
		<path id="Vector" d="M30.98 22.57C31.96 17.7 30.12 13.25 29.73 8.45C29.5 5.57 30.74 0.98 34.68 2.29C37.62 3.26 38.73 6.71 38.53 9.47C38.39 11.49 37.41 17.41 41.35 16.86C44.73 16.39 46.48 10.83 48.12 8.48C49.52 6.46 52.63 3.51 55.36 4.33C59.69 5.64 56.92 10.76 54.93 12.77C51.57 16.16 47.99 19.16 45.02 22.94C43.31 25.13 41.82 28.73 45.63 29.72C47.09 30.09 48.5 29.59 49.83 29C50.89 28.52 51.9 27.94 53.04 27.63C55.1 27.05 57.5 27.5 56.13 30.03C52.93 35.96 45.61 31.59 40.89 34.07C36.89 36.18 35.96 40.85 36.33 44.95C36.41 45.8 37.77 45.8 37.69 44.95C37.42 42.09 37.65 39.01 39.65 36.74C42.24 33.82 45.7 34.89 49.12 34.82C52.62 34.75 57.13 33.08 57.85 29.23C58.65 25 53.77 25.82 51.26 26.84C50.16 27.29 49.13 27.99 47.97 28.32C47.06 28.58 45.61 28.72 44.89 27.87C44.19 27.04 44.75 25.65 45.19 24.95C46.77 22.37 49.19 20.02 51.35 17.9C54.32 14.98 59.39 11.87 58.95 7.1C58.62 3.45 55.2 2.12 52.05 3.48C50.16 4.31 48.59 5.61 47.35 7.25C45.74 9.37 44.88 12.3 42.95 14.18C42.26 14.85 41.58 16.29 40.03 14.88C39.34 14.25 39.54 12.58 39.62 11.72C39.71 10.6 39.96 9.5 39.92 8.37C39.86 6.45 39.22 4.51 37.96 3.02C35.3 -0.11 30.73 0.03 28.96 3.96C27.91 6.3 28.37 8.99 28.81 11.42C29.46 15.02 30.41 18.55 29.68 22.21C29.51 23.05 30.82 23.41 30.98 22.57Z" fill="#46A358" fill-opacity="1.000000" fill-rule="nonzero"/>
		<path id="Vector" d="M30.68 31C30.04 35.58 29 40.07 27.55 44.47C27.28 45.29 28.59 45.64 28.85 44.83C30.31 40.43 31.35 35.94 31.98 31.36C32.1 30.51 30.8 30.15 30.68 31Z" fill="#46A358" fill-opacity="1.000000" fill-rule="nonzero"/>
		<path id="Vector" d="M14.5 43.97C14.33 40.44 11.84 38.06 8.98 36.24C7.13 35.06 5.1 34.08 3.51 32.55C2.82 31.89 1.55 30.61 1.48 29.59C1.25 26.18 5.47 28.84 6.41 29.62C7.07 30.18 8.03 29.24 7.37 28.68C5.89 27.44 3.25 25.83 1.22 26.76C-0.41 27.51 -0.14 29.37 0.49 30.72C3.12 36.42 12.8 37.07 13.15 43.97C13.19 44.82 14.55 44.83 14.5 43.97Z" fill="#46A358" fill-opacity="1.000000" fill-rule="nonzero"/>
		<path id="Vector" d="M44.83 45.29C46.52 42.78 48.74 40.73 51.47 39.35C53.95 38.1 57.02 37.88 59.22 36.11C61.74 34.07 61.87 29.08 57.7 29.21C56.83 29.24 56.83 30.57 57.7 30.54C59.34 30.77 60.01 31.66 59.71 33.23C59.37 34.13 58.8 34.85 57.99 35.36C57 36.05 55.8 36.37 54.67 36.72C53.22 37.18 51.81 37.65 50.47 38.36C47.68 39.85 45.41 42.03 43.66 44.62C43.18 45.33 44.35 46 44.83 45.29Z" fill="#46A358" fill-opacity="1.000000" fill-rule="nonzero"/>
		<path id="Vector" d="M48.51 33.56C42.78 34.62 40.66 40.25 39.31 45.17C39.08 46 40.38 46.35 40.61 45.52C41.84 41.05 43.63 35.82 48.87 34.85C49.72 34.68 49.36 33.4 48.51 33.56Z" fill="#46A358" fill-opacity="1.000000" fill-rule="nonzero"/>
		<path id="Vector" d="M18.29 13.26C17.62 10.6 18.46 7.68 20.63 5.89C21.07 5.52 21.56 5.23 22.11 5.03C23.61 5.34 24.31 6.13 24.2 7.4C24.23 8.14 24.09 8.87 23.91 9.58C23.56 11.01 22.93 12.38 22.46 13.78C21.27 17.4 19.55 23.32 22.78 26.4C23.09 26.7 23.57 26.23 23.26 25.93C20.43 23.23 21.88 18.04 22.85 14.81C23.69 12.01 25.96 8.29 24.43 5.35C23.23 3.05 20.48 4.92 19.31 6.26C17.58 8.25 17 10.92 17.63 13.44C17.74 13.86 18.39 13.68 18.29 13.26Z" fill="#46A358" fill-opacity="1.000000" fill-rule="nonzero"/>
		<path id="Vector" d="M32.58 24.06C32.97 23.21 33.76 22.01 34.81 21.87C36.41 21.65 37.23 23.63 36.37 24.94C35.57 26.18 34.03 27.04 32.7 27.57C30.5 28.44 29.02 29.65 27.42 31.38C27.13 31.7 27.6 32.17 27.9 31.85C28.87 30.8 29.86 29.71 31.12 28.98C32.13 28.4 33.3 28.17 34.31 27.6C35.54 26.9 37.53 25.4 37.67 23.88C37.79 22.65 36.48 21.23 35.25 21.15C33.77 21.06 32.54 22.55 32 23.72C31.82 24.11 32.41 24.45 32.58 24.06Z" fill="#46A358" fill-opacity="1.000000" fill-rule="nonzero"/>
		<path id="Vector" d="M7.3 24.83C7.44 23.66 7.89 23.23 8.63 23.55C8.89 23.55 9.11 23.64 9.29 23.83C9.64 24.06 9.88 24.4 10.09 24.76C10.47 25.4 10.65 26.16 10.93 26.84C11.28 27.72 11.75 28.44 12.56 28.96C12.92 29.2 13.26 28.62 12.9 28.38C10.92 27.08 11.47 23.72 8.99 22.9C7.5 22.41 6.01 23.68 6.71 25.16C6.9 25.56 7.48 25.22 7.3 24.83Z" fill="#46A358" fill-opacity="1.000000" fill-rule="nonzero"/>
		<path id="Vector" d="M31.53 7.58C31.18 5.66 33.23 4.13 34.8 5.53C35.66 6.3 36 7.73 36 8.84C36.01 10.34 35.31 11.69 35.61 13.2C35.69 13.62 36.34 13.45 36.26 13.02C35.89 11.13 36.96 9.31 36.48 7.34C36.19 6.16 35.6 4.85 34.37 4.4C32.14 3.61 30.5 5.73 30.87 7.75C30.96 8.17 31.6 8 31.53 7.58Z" fill="#46A358" fill-opacity="1.000000" fill-rule="nonzero"/>
		<path id="Vector" d="M31.19 11.98C32.29 14.26 32.83 16.26 32.75 18.79C32.74 19.22 33.41 19.21 33.43 18.79C33.51 16.13 32.93 14.02 31.78 11.64C31.59 11.26 31 11.59 31.19 11.98Z" fill="#46A358" fill-opacity="1.000000" fill-rule="nonzero"/>
		<path id="Vector" d="M48.73 10.07C49.38 8.6 50.62 7.67 52.05 6.97C52.46 6.76 52.88 6.58 53.32 6.44C55.23 7.09 55.71 7.97 54.77 9.11C54.32 9.81 53.67 10.43 53.1 11.05C50.96 13.38 48.64 15.54 46.19 17.56C45.86 17.83 46.34 18.31 46.67 18.03C48.88 16.21 50.99 14.27 52.96 12.19C54.14 10.94 56.4 9.09 55.91 7.11C54.92 3.2 48.97 7.86 48.14 9.73C47.97 10.12 48.56 10.46 48.73 10.07Z" fill="#46A358" fill-opacity="1.000000" fill-rule="nonzero"/>
		<path id="Vector" d="M44.91 19.98C42.75 21.55 41.44 23.83 41.19 26.45C41.15 26.88 41.83 26.88 41.87 26.45C42.09 24.08 43.3 21.97 45.25 20.55C45.6 20.31 45.26 19.72 44.91 19.98Z" fill="#46A358" fill-opacity="1.000000" fill-rule="nonzero"/>
		<path id="Vector" d="M49.19 31.1C49.63 30.84 50.07 30.57 50.54 30.34C50.89 30.15 51.26 30 51.65 29.9C52.37 29.6 52.62 30.16 52.37 31.57C51.9 32.49 49.31 32.53 48.5 32.48C46.5 32.37 44.61 31.82 42.63 32.42C42.21 32.55 42.39 33.19 42.81 33.07C45.19 32.34 47.5 33.4 49.9 33.13C51.2 32.99 53.05 32.4 53.69 31.15C54.06 30.46 53.97 29.54 53.18 29.16C51.89 28.55 49.87 29.92 48.85 30.53C48.48 30.75 48.82 31.33 49.19 31.1Z" fill="#46A358" fill-opacity="1.000000" fill-rule="nonzero"/>
		<path id="Vector" d="M39.13 33.58C35.62 36.4 34.34 40.66 33.98 44.97C33.94 45.39 34.62 45.39 34.66 44.97C35 40.83 36.23 36.76 39.61 34.05C39.95 33.78 39.47 33.32 39.13 33.58Z" fill="#46A358" fill-opacity="1.000000" fill-rule="nonzero"/>
		<path id="Vector" d="M24 34.72C22.95 36.5 22.98 38.45 23.21 40.45C23.41 42.13 23.63 43.78 24.8 45.09C25.09 45.41 25.57 44.94 25.28 44.62C24.13 43.34 23.98 41.56 23.83 39.92C23.67 38.22 23.69 36.57 24.58 35.05C24.8 34.68 24.22 34.35 24 34.72Z" fill="#46A358" fill-opacity="1.000000" fill-rule="nonzero"/>
		<path id="Vector" d="M5.34 30.33C3.38 30.35 4.16 32.38 5.2 33.11C6.51 34.02 8 34.63 9.39 35.4C11.02 36.31 11.68 37.84 12.94 39.11C13.24 39.42 13.72 38.95 13.42 38.64C12.17 37.38 11.57 35.86 9.96 34.95C9.14 34.5 8.29 34.11 7.48 33.67C7.05 33.44 6.63 33.21 6.22 32.96C6.06 32.86 5.89 32.76 5.73 32.66C4.92 32.36 4.8 31.81 5.34 31C5.77 30.99 5.77 30.32 5.34 30.33Z" fill="#46A358" fill-opacity="1.000000" fill-rule="nonzero"/>
		<path id="Vector" d="M56.23 33.4C56.26 34.29 55.84 34.77 54.98 34.86C54.56 35.02 54.15 35.18 53.74 35.34C53.12 35.59 52.5 35.83 51.88 36.08C50.44 36.65 48.99 37.22 47.55 37.79C47.15 37.94 47.32 38.59 47.73 38.43C49.38 37.78 51.03 37.13 52.68 36.48C53.9 35.99 55.46 35.65 56.55 34.89C57.49 34.23 57.52 32.87 56.23 32.73C55.8 32.68 55.8 33.35 56.23 33.4Z" fill="#46A358" fill-opacity="1.000000" fill-rule="nonzero"/>
		<path id="Vector" d="M46 38.71C44.18 40.4 42.76 42.39 41.75 44.63C41.57 45.02 42.15 45.36 42.33 44.97C43.32 42.78 44.7 40.84 46.48 39.19C46.79 38.89 46.31 38.42 46 38.71Z" fill="#46A358" fill-opacity="1.000000" fill-rule="nonzero"/>
		<path id="Vector" d="M14.55 41.63C15.06 42.39 15.4 43.2 15.56 44.1C15.63 44.52 16.28 44.34 16.21 43.92C16.04 42.97 15.68 42.09 15.13 41.29C14.89 40.94 14.3 41.27 14.55 41.63Z" fill="#46A358" fill-opacity="1.000000" fill-rule="nonzero"/>
	</g>
</svg>
